<svg width="17" height="16" viewBox="0 0 17 16" fill="none" xmlns="http://www.w3.org/2000/svg">
<path d="M5.30592 1.30816C5.11004 1.50554 5 1.7732 5 2.05229C5 2.33138 5.11004 2.59904 5.30592 2.79641L10.4779 8.00635L5.30592 13.2163C5.11559 13.4148 5.01027 13.6807 5.01266 13.9566C5.01504 14.2326 5.12492 14.4966 5.31865 14.6917C5.51237 14.8869 5.77443 14.9976 6.04839 15C6.32235 15.0024 6.58628 14.8963 6.78334 14.7045L12.6941 8.75048C12.89 8.55311 13 8.28544 13 8.00635C13 7.72727 12.89 7.4596 12.6941 7.26223L6.78334 1.30816C6.5874 1.11085 6.32169 1 6.04463 1C5.76757 1 5.50186 1.11085 5.30592 1.30816Z" fill="white" stroke="white" stroke-width="0.8" stroke-miterlimit="16" stroke-linejoin="round"/>
</svg>
