<svg width="32" height="32" viewBox="0 0 32 32" fill="none" xmlns="http://www.w3.org/2000/svg">
<path d="M4.5 26C4.075 26 3.71901 25.84 3.43201 25.52C3.14501 25.2 3.00101 24.8044 3.00001 24.3333C2.99901 23.8622 3.14301 23.4666 3.43201 23.1466C3.72101 22.8266 4.077 22.6666 4.5 22.6666H28.5C28.925 22.6666 29.2815 22.8266 29.5695 23.1466C29.8575 23.4666 30.001 23.8622 30 24.3333C29.999 24.8044 29.855 25.2005 29.568 25.5216C29.281 25.8428 28.925 26.0022 28.5 26H4.5ZM4.5 17.6667C4.075 17.6667 3.71901 17.5067 3.43201 17.1867C3.14501 16.8667 3.00101 16.4711 3.00001 16C2.99901 15.5289 3.14301 15.1333 3.43201 14.8133C3.72101 14.4933 4.077 14.3333 4.5 14.3333H28.5C28.925 14.3333 29.2815 14.4933 29.5695 14.8133C29.8575 15.1333 30.001 15.5289 30 16C29.999 16.4711 29.855 16.8672 29.568 17.1883C29.281 17.5094 28.925 17.6689 28.5 17.6667H4.5ZM4.5 9.33333C4.075 9.33333 3.71901 9.17333 3.43201 8.85333C3.14501 8.53333 3.00101 8.13778 3.00001 7.66666C2.99901 7.19555 3.14301 6.8 3.43201 6.48C3.72101 6.16 4.077 6 4.5 6H28.5C28.925 6 29.2815 6.16 29.5695 6.48C29.8575 6.8 30.001 7.19555 30 7.66666C29.999 8.13778 29.855 8.53389 29.568 8.855C29.281 9.17611 28.925 9.33555 28.5 9.33333H4.5Z" fill="url(#paint0_linear_138_348)"/>
<defs>
<linearGradient id="paint0_linear_138_348" x1="16.5" y1="6" x2="16.5" y2="26" gradientUnits="userSpaceOnUse">
<stop stop-color="white"/>
<stop offset="1" stop-color="#70B1FF"/>
</linearGradient>
</defs>
</svg>
