<svg width="18" height="19" viewBox="0 0 18 19" fill="none" xmlns="http://www.w3.org/2000/svg">
<path d="M4.5 8.97937C4.5 6.85837 4.5 5.79712 5.15925 5.13862C5.81775 4.47937 6.879 4.47937 9 4.47937H11.25C13.371 4.47937 14.4323 4.47937 15.0908 5.13862C15.75 5.79712 15.75 6.85837 15.75 8.97937V12.7294C15.75 14.8504 15.75 15.9116 15.0908 16.5701C14.4323 17.2294 13.371 17.2294 11.25 17.2294H9C6.879 17.2294 5.81775 17.2294 5.15925 16.5701C4.5 15.9116 4.5 14.8504 4.5 12.7294V8.97937Z" stroke="white" stroke-width="1.5"/>
<path opacity="0.5" d="M4.5 14.9794C3.90326 14.9794 3.33097 14.7423 2.90901 14.3204C2.48705 13.8984 2.25 13.3261 2.25 12.7294V8.22937C2.25 5.40112 2.25 3.98662 3.129 3.10837C4.008 2.23012 5.42175 2.22937 8.25 2.22937H11.25C11.8467 2.22937 12.419 2.46642 12.841 2.88838C13.2629 3.31034 13.5 3.88263 13.5 4.47937" stroke="black" stroke-width="1.5"/>
</svg>
