<svg width="32" height="33" viewBox="0 0 32 33" fill="none" xmlns="http://www.w3.org/2000/svg">
<path fill-rule="evenodd" clip-rule="evenodd" d="M8.45613 7.40102C8.18669 7.14079 7.82583 6.9968 7.45127 7.00005C7.0767 7.00331 6.7184 7.15355 6.45353 7.41842C6.18866 7.68329 6.03842 8.04159 6.03516 8.41616C6.03191 8.79072 6.1759 9.15159 6.43613 9.42102L13.9976 16.9824L6.43613 24.5439C6.29968 24.6757 6.19085 24.8333 6.11598 25.0076C6.04111 25.1819 6.0017 25.3693 6.00005 25.559C5.99841 25.7487 6.03455 25.9368 6.10638 26.1124C6.17821 26.2879 6.28429 26.4474 6.41842 26.5816C6.55255 26.7157 6.71205 26.8218 6.88762 26.8936C7.06319 26.9654 7.2513 27.0016 7.44098 26.9999C7.63067 26.9983 7.81813 26.9589 7.99242 26.884C8.16671 26.8091 8.32434 26.7003 8.45613 26.5639L16.0176 19.0024L23.579 26.5639C23.8484 26.8241 24.2093 26.9681 24.5838 26.9648C24.9584 26.9616 25.3167 26.8113 25.5816 26.5465C25.8465 26.2816 25.9967 25.9233 25.9999 25.5487C26.0032 25.1742 25.8592 24.8133 25.599 24.5439L18.0376 16.9824L25.599 9.42102C25.8592 9.15159 26.0032 8.79072 25.9999 8.41616C25.9967 8.04159 25.8465 7.68329 25.5816 7.41842C25.3167 7.15355 24.9584 7.00331 24.5838 7.00005C24.2093 6.9968 23.8484 7.14079 23.579 7.40102L16.0176 14.9624L8.45613 7.40102Z" fill="url(#paint0_linear_138_313)"/>
<defs>
<linearGradient id="paint0_linear_138_313" x1="16" y1="7" x2="16" y2="27" gradientUnits="userSpaceOnUse">
<stop stop-color="white"/>
<stop offset="1" stop-color="#70B1FF"/>
</linearGradient>
</defs>
</svg>
