<svg width="40" height="40" viewBox="0 0 40 40" fill="none" xmlns="http://www.w3.org/2000/svg">
<path d="M20 22.5551L11.057 31.4981C10.7224 31.8327 10.2966 32 9.77947 32C9.26236 32 8.8365 31.8327 8.5019 31.4981C8.1673 31.1635 8 30.7376 8 30.2205C8 29.7034 8.1673 29.2776 8.5019 28.943L17.4449 20L8.5019 11.057C8.1673 10.7224 8 10.2966 8 9.77947C8 9.26236 8.1673 8.8365 8.5019 8.5019C8.8365 8.1673 9.26236 8 9.77947 8C10.2966 8 10.7224 8.1673 11.057 8.5019L20 17.4449L28.943 8.5019C29.2776 8.1673 29.7034 8 30.2205 8C30.7376 8 31.1635 8.1673 31.4981 8.5019C31.8327 8.8365 32 9.26236 32 9.77947C32 10.2966 31.8327 10.7224 31.4981 11.057L22.5551 20L31.4981 28.943C31.8327 29.2776 32 29.7034 32 30.2205C32 30.7376 31.8327 31.1635 31.4981 31.4981C31.1635 31.8327 30.7376 32 30.2205 32C29.7034 32 29.2776 31.8327 28.943 31.4981L20 22.5551Z" fill="currentColor"/>
</svg>
