<svg width="24" height="24" viewBox="0 0 24 24" fill="none" xmlns="http://www.w3.org/2000/svg">
<path d="M11.9998 2C12.1644 1.99998 12.3264 2.04058 12.4716 2.11821C12.6167 2.19583 12.7404 2.30808 12.8318 2.445L18.6358 11.152L12.9995 13.5654L12.1988 4.453C12.1668 4.223 11.8328 4.223 11.8018 4.453L10.9995 13.5654L5.36377 11.152L11.1678 2.445C11.2591 2.30808 11.3829 2.19583 11.528 2.11821C11.6731 2.04058 11.8352 1.99998 11.9998 2ZM12.3848 15.923L18.2028 13.499L12.8328 21.555C12.7415 21.6922 12.6177 21.8047 12.4725 21.8825C12.3272 21.9603 12.165 22.001 12.0003 22.001C11.8355 22.001 11.6733 21.9603 11.5281 21.8825C11.3828 21.8047 11.2591 21.6922 11.1678 21.555L5.79777 13.499L11.6148 15.923C11.7367 15.9739 11.8676 16.0001 11.9998 16.0001C12.1319 16.0001 12.2628 15.9739 12.3848 15.923Z" fill="url(#paint0_linear_138_383)"/>
<defs>
<linearGradient id="paint0_linear_138_383" x1="11.9998" y1="2" x2="11.9998" y2="22.001" gradientUnits="userSpaceOnUse">
<stop stop-color="#01D4FF"/>
<stop offset="1" stop-color="#0093FF"/>
</linearGradient>
</defs>
</svg>
