<svg width="42" height="33" viewBox="0 0 42 33" fill="none" xmlns="http://www.w3.org/2000/svg">
<path d="M22.0095 31.7919C22.9905 31.7919 23.8455 31.2868 25.6965 31.2868C27.5468 31.2868 28.0515 31.7911 29.4247 31.7911C31.5 31.7911 32.5935 30.8432 32.5935 29.2668C32.5935 26.5738 29.9017 24.769 25.6822 24.769C23.6077 24.769 22.668 24.9835 21.5047 25.3043L19.9905 21.5408C18.4905 17.9304 16.1077 15.5739 12.7155 15.5739H11.061C10.5135 15.5739 10.1497 15.3144 10.1497 14.7324C10.1497 13.7846 11.313 13.5546 12.5887 13.5546C16.6822 13.5546 19.7243 16.0183 21.5745 20.9752L22.5278 23.5298C23.5203 23.3121 24.5304 23.2046 25.5427 23.2089C26.3692 23.2089 27.126 23.2695 27.9255 23.3923C28.7663 22.7039 29.748 21.9844 31.1632 21.3116C32.7337 22.4739 34.5142 23.2237 36.3923 23.2237C40.2622 23.2237 42 22.3061 42 18.3126C42 13.4932 38.8035 9.88273 34.5563 9.89828L30.7852 4.43634C28.6687 1.43731 26.1593 0 23.6775 0C21.6308 0 18.5887 1.28507 18.5887 3.08989C18.5887 4.31356 20.8598 6.02753 22.6125 7.20537L30.687 12.5912C30.0562 13.2485 29.4818 13.6004 28.7948 13.6004C27.7013 13.6004 26.5793 12.8818 24.8835 11.8103C20.5515 9.08713 17.229 6.53255 12.7432 6.53255C8.0745 6.53255 4.52775 9.45465 2.6355 15.1458C1.1355 15.1458 0 16.2164 0 17.7928C0 19.5674 1.29 20.6838 3.05625 20.6838C5.103 23.8048 8.45325 25.0596 12.4208 25.0596C12.6308 25.0596 12.8407 25.0449 13.0507 25.0449L18.729 30.1851C20.1315 31.5766 20.9438 31.7919 22.0095 31.7919ZM36.0705 17.5776C35.439 17.5776 34.935 16.9964 34.935 16.3228C34.935 15.6352 35.4533 15.023 36.084 15.023C36.729 15.023 37.2195 15.573 37.2195 16.2622C37.2195 16.9498 36.7013 17.5776 36.0705 17.5776ZM11.874 33C14.5792 33 16.2195 32.4344 17.5658 31.4244L13.2338 27.4775C13.0372 27.4922 12.7987 27.5233 12.5048 27.5233C11.8035 27.5233 10.7662 27.2941 9.5325 27.2941C7.96275 27.2941 6.99525 28.2109 6.99525 29.5884C6.99525 31.6388 8.90175 33 11.874 33Z" fill="white"/>
</svg>
