<svg width="24" height="25" viewBox="0 0 24 25" fill="none" xmlns="http://www.w3.org/2000/svg">
<path d="M13.5 11.2256L21 3.72559M21 3.72559H16M21 3.72559V8.72559M21 14.7256V19.7256C21 20.256 20.7893 20.7647 20.4142 21.1398C20.0391 21.5149 19.5304 21.7256 19 21.7256H5C4.46957 21.7256 3.96086 21.5149 3.58579 21.1398C3.21071 20.7647 3 20.256 3 19.7256V5.72559C3 5.19515 3.21071 4.68645 3.58579 4.31137C3.96086 3.9363 4.46957 3.72559 5 3.72559H10" stroke="black" stroke-width="2" stroke-linecap="round" stroke-linejoin="round"/>
<path d="M13.5 11.2256L21 3.72559M21 3.72559H16M21 3.72559V8.72559M21 14.7256V19.7256C21 20.256 20.7893 20.7647 20.4142 21.1398C20.0391 21.5149 19.5304 21.7256 19 21.7256H5C4.46957 21.7256 3.96086 21.5149 3.58579 21.1398C3.21071 20.7647 3 20.256 3 19.7256V5.72559C3 5.19515 3.21071 4.68645 3.58579 4.31137C3.96086 3.9363 4.46957 3.72559 5 3.72559H10" stroke="white" stroke-width="2" stroke-linecap="round" stroke-linejoin="round"/>
<path d="M13.5 11.2256L21 3.72559M21 3.72559H16M21 3.72559V8.72559M21 14.7256V19.7256C21 20.256 20.7893 20.7647 20.4142 21.1398C20.0391 21.5149 19.5304 21.7256 19 21.7256H5C4.46957 21.7256 3.96086 21.5149 3.58579 21.1398C3.21071 20.7647 3 20.256 3 19.7256V5.72559C3 5.19515 3.21071 4.68645 3.58579 4.31137C3.96086 3.9363 4.46957 3.72559 5 3.72559H10" stroke="url(#paint0_linear_155_1715)" stroke-width="2" stroke-linecap="round" stroke-linejoin="round"/>
<defs>
<linearGradient id="paint0_linear_155_1715" x1="12" y1="3.72559" x2="12" y2="21.7256" gradientUnits="userSpaceOnUse">
<stop stop-color="white"/>
<stop offset="1" stop-color="#70B1FF"/>
</linearGradient>
</defs>
</svg>
