<svg width="24" height="25" viewBox="0 0 24 25" fill="none" xmlns="http://www.w3.org/2000/svg">
<path fill-rule="evenodd" clip-rule="evenodd" d="M10.5 6.22559C9.17392 6.22559 7.90215 6.75237 6.96447 7.69005C6.02678 8.62773 5.5 9.8995 5.5 11.2256C5.5 12.5517 6.02678 13.8234 6.96447 14.7611C7.90215 15.6988 9.17392 16.2256 10.5 16.2256C11.8261 16.2256 13.0979 15.6988 14.0355 14.7611C14.9732 13.8234 15.5 12.5517 15.5 11.2256C15.5 9.8995 14.9732 8.62773 14.0355 7.69005C13.0979 6.75237 11.8261 6.22559 10.5 6.22559ZM4 11.2256C4 9.50168 4.68482 7.84838 5.90381 6.62939C7.12279 5.41041 8.77609 4.72559 10.5 4.72559C12.2239 4.72559 13.8772 5.41041 15.0962 6.62939C16.3152 7.84838 17 9.50168 17 11.2256C17 12.9495 16.3152 14.6028 15.0962 15.8218C13.8772 17.0408 12.2239 17.7256 10.5 17.7256C8.77609 17.7256 7.12279 17.0408 5.90381 15.8218C4.68482 14.6028 4 12.9495 4 11.2256Z" fill="white"/>
<path fill-rule="evenodd" clip-rule="evenodd" d="M14.4703 15.1949C14.6109 15.0545 14.8016 14.9756 15.0003 14.9756C15.1991 14.9756 15.3897 15.0545 15.5303 15.1949L19.5303 19.1949C19.604 19.2636 19.6631 19.3464 19.7041 19.4384C19.7451 19.5304 19.7671 19.6297 19.7689 19.7304C19.7707 19.8311 19.7522 19.9311 19.7144 20.0245C19.6767 20.1179 19.6206 20.2027 19.5494 20.274C19.4781 20.3452 19.3933 20.4013 19.2999 20.439C19.2065 20.4768 19.1065 20.4953 19.0058 20.4935C18.9051 20.4917 18.8058 20.4697 18.7138 20.4287C18.6218 20.3877 18.539 20.3286 18.4703 20.2549L14.4703 16.2549C14.3299 16.1143 14.251 15.9237 14.251 15.7249C14.251 15.5262 14.3299 15.3356 14.4703 15.1949Z" fill="white"/>
</svg>
