<svg width="25" height="24" viewBox="0 0 25 24" fill="none" xmlns="http://www.w3.org/2000/svg">
<path d="M14.265 2.152C13.898 2 13.432 2 12.5 2C11.568 2 11.102 2 10.735 2.152C10.4921 2.25251 10.2715 2.3999 10.0857 2.58572C9.89986 2.77155 9.75248 2.99218 9.65196 3.235C9.55996 3.458 9.52296 3.719 9.50896 4.098C9.50245 4.37193 9.42657 4.63973 9.2884 4.87635C9.15024 5.11298 8.95432 5.31069 8.71896 5.451C8.47977 5.58477 8.21055 5.65567 7.93649 5.65707C7.66244 5.65847 7.39251 5.59032 7.15196 5.459C6.81596 5.281 6.57296 5.183 6.33196 5.151C5.80628 5.08187 5.27466 5.22431 4.85396 5.547C4.53996 5.79 4.30596 6.193 3.83996 7L3.82993 7.01737C3.3706 7.8128 3.1396 8.21284 3.08896 8.605C3.0546 8.86545 3.07188 9.13012 3.13983 9.3839C3.20778 9.63767 3.32505 9.87556 3.48496 10.084C3.63296 10.276 3.83996 10.437 4.16096 10.639C4.63396 10.936 4.93796 11.442 4.93796 12C4.93796 12.558 4.63396 13.064 4.16096 13.36C3.83996 13.563 3.63196 13.724 3.48496 13.916C3.32505 14.1244 3.20778 14.3623 3.13983 14.6161C3.07188 14.8699 3.0546 15.1345 3.08896 15.395C3.1409 15.7885 3.3734 16.192 3.83727 16.9971L3.83896 17L3.84065 17.0029C4.30652 17.808 4.53934 18.2103 4.85396 18.453C5.0624 18.6129 5.3003 18.7302 5.55407 18.7981C5.80784 18.8661 6.07251 18.8834 6.33296 18.849C6.57296 18.817 6.81596 18.719 7.15196 18.541C7.39251 18.4097 7.66244 18.3415 7.93649 18.3429C8.21055 18.3443 8.47977 18.4152 8.71896 18.549C9.20196 18.829 9.48896 19.344 9.50896 19.902C9.52296 20.282 9.55896 20.542 9.65196 20.765C9.75248 21.0078 9.89986 21.2284 10.0857 21.4143C10.2715 21.6001 10.4921 21.7475 10.735 21.848C11.102 22 11.568 22 12.5 22C13.432 22 13.898 22 14.265 21.848C14.5078 21.7475 14.7284 21.6001 14.9142 21.4143C15.1001 21.2284 15.2474 21.0078 15.348 20.765C15.44 20.542 15.477 20.282 15.491 19.902C15.511 19.344 15.798 18.828 16.281 18.549C16.5202 18.4152 16.7894 18.3443 17.0634 18.3429C17.3375 18.3415 17.6074 18.4097 17.848 18.541C18.184 18.719 18.427 18.817 18.667 18.849C18.9274 18.8834 19.1921 18.8661 19.4459 18.7981C19.6996 18.7302 19.9375 18.6129 20.146 18.453C20.4604 18.2114 20.6932 17.8083 21.1577 17.004L21.16 17L21.17 16.9826C21.6293 16.1872 21.8603 15.7872 21.911 15.395C21.9453 15.1345 21.928 14.8699 21.8601 14.6161C21.7921 14.3623 21.6749 14.1244 21.515 13.916C21.367 13.724 21.16 13.563 20.839 13.361C20.6049 13.2184 20.4108 13.0187 20.2749 12.7807C20.139 12.5427 20.0658 12.2741 20.062 12C20.062 11.442 20.366 10.936 20.839 10.64C21.16 10.437 21.368 10.276 21.515 10.084C21.6749 9.87556 21.7921 9.63767 21.8601 9.3839C21.928 9.13012 21.9453 8.86545 21.911 8.605C21.859 8.21148 21.6265 7.80798 21.1626 7.00293L21.161 7L21.1593 6.99708C20.6934 6.19203 20.4606 5.78971 20.146 5.547C19.9375 5.38709 19.6996 5.26981 19.4459 5.20187C19.1921 5.13392 18.9274 5.11664 18.667 5.151C18.427 5.183 18.184 5.281 17.847 5.459C17.6065 5.59014 17.3368 5.6582 17.0629 5.6568C16.7891 5.6554 16.52 5.58459 16.281 5.451C16.0456 5.31069 15.8497 5.11298 15.7115 4.87635C15.5734 4.63973 15.4975 4.37193 15.491 4.098C15.477 3.718 15.441 3.458 15.348 3.235C15.2474 2.99218 15.1001 2.77155 14.9142 2.58572C14.7284 2.3999 14.5078 2.25251 14.265 2.152Z" fill="white"/>
<circle cx="12.5" cy="12" r="1.84615" fill="#F2B029"/>
</svg>
