<svg width="32" height="32" viewBox="0 0 32 32" fill="none" xmlns="http://www.w3.org/2000/svg">
<path fill-rule="evenodd" clip-rule="evenodd" d="M21.9216 9.15427C22.0892 8.967 22.3163 8.86182 22.5531 8.86182C22.7899 8.86182 23.017 8.967 23.1846 9.15427L23.187 9.15694L23.1905 9.1596L23.1989 9.16894L23.2227 9.1956L23.2966 9.2876C23.3562 9.3636 23.4396 9.4716 23.5361 9.60894C24.637 11.2102 25.2339 13.1739 25.234 15.1943C25.2339 17.2146 24.637 19.1783 23.5361 20.7796C23.4363 20.9221 23.3314 21.06 23.2215 21.1929L23.1977 21.2196L23.1905 21.2289L23.187 21.2316L23.1858 21.2329L22.5781 20.5556L23.1858 21.2356C23.0181 21.4232 22.7908 21.5286 22.5537 21.5286C22.3166 21.5286 22.0893 21.4232 21.9216 21.2356C21.754 21.048 21.6598 20.7936 21.6598 20.5283C21.6598 20.263 21.754 20.0085 21.9216 19.8209L21.9204 19.8223L21.918 19.8236L21.924 19.8169L21.9633 19.7689C22.0014 19.7227 22.0566 19.6485 22.1289 19.5463C22.8827 18.4451 23.3344 17.1226 23.4292 15.7396C23.5239 14.3566 23.2577 12.9725 22.6627 11.7556C22.5074 11.4353 22.3289 11.1299 22.1289 10.8423C22.0642 10.7487 21.9959 10.6584 21.924 10.5716L21.918 10.5649C21.7519 10.377 21.659 10.1231 21.6597 9.85878C21.6603 9.59443 21.7545 9.34113 21.9216 9.15427Z" fill="url(#paint0_linear_138_343)"/>
<path fill-rule="evenodd" clip-rule="evenodd" d="M25.4962 5.15431C25.6637 4.96705 25.8909 4.86186 26.1277 4.86186C26.3645 4.86186 26.5916 4.96705 26.7591 5.15431L26.7627 5.15698L26.7663 5.16098L26.777 5.17431C26.8287 5.23132 26.878 5.29094 26.9248 5.35298C27.0189 5.47165 27.1488 5.64365 27.3013 5.86631C27.6075 6.31031 28.009 6.96365 28.4082 7.81298C29.2065 9.51165 30 12.0036 30 15.1943C30 18.385 29.2065 20.877 28.4082 22.577C28.0902 23.2604 27.7198 23.9118 27.3013 24.5236C27.1366 24.7632 26.9617 24.9937 26.777 25.2143L26.7651 25.2276L26.7627 25.2316L26.7603 25.233L26.1277 24.5276L26.7591 25.2343C26.5907 25.4166 26.365 25.5175 26.1307 25.5153C25.8964 25.5132 25.6722 25.4081 25.5065 25.2228C25.3407 25.0375 25.2466 24.7867 25.2445 24.5245C25.2423 24.2623 25.3323 24.0097 25.495 23.821L25.5117 23.8023L25.5867 23.709C25.6574 23.6219 25.7567 23.4868 25.8846 23.3036C26.1372 22.9356 26.4803 22.3796 26.8259 21.645C27.5169 20.1783 28.2128 18.0036 28.2128 15.1943C28.2128 12.385 27.5169 10.2103 26.8259 8.74365C26.5546 8.16196 26.2397 7.60708 25.8846 7.08498C25.7664 6.91317 25.642 6.74681 25.5117 6.58631L25.495 6.56765C25.3276 6.38015 25.2336 6.12598 25.2336 5.86098C25.2336 5.59598 25.3288 5.34181 25.4962 5.15431ZM16.0441 4.38898C17.4298 3.36631 19.2766 4.47965 19.2766 6.33698V25.385C19.2766 27.2436 17.4298 28.3556 16.0441 27.333L8.89515 22.0596C8.84679 22.0236 8.79004 22.0041 8.73191 22.0036H5.2766C4.40759 22.0036 3.57417 21.6173 2.95969 20.9297C2.34521 20.2421 2 19.3094 2 18.337V13.385C2 12.9035 2.08475 12.4267 2.24942 11.9818C2.41408 11.5369 2.65543 11.1327 2.95969 10.7923C3.26395 10.4518 3.62516 10.1817 4.0227 9.99742C4.42023 9.81315 4.84631 9.71831 5.2766 9.71831H8.73191C8.79033 9.71853 8.84751 9.69952 8.89634 9.66365L16.0441 4.38898Z" fill="url(#paint1_linear_138_343)"/>
<defs>
<linearGradient id="paint0_linear_138_343" x1="23.4468" y1="8.86182" x2="23.4468" y2="21.5286" gradientUnits="userSpaceOnUse">
<stop stop-color="#FCFDFF"/>
<stop offset="1" stop-color="#70B1FF"/>
</linearGradient>
<linearGradient id="paint1_linear_138_343" x1="16" y1="4" x2="16" y2="27.7222" gradientUnits="userSpaceOnUse">
<stop stop-color="#FCFDFF"/>
<stop offset="1" stop-color="#70B1FF"/>
</linearGradient>
</defs>
</svg>
