<svg width="44" height="39" viewBox="0 0 44 39" fill="none" xmlns="http://www.w3.org/2000/svg">
<path d="M8.16096 15.4688C10.6301 13.1128 13.5451 11.6786 16.9082 11.5885V15.5744L10.6015 17.8814L8.16096 15.4688Z" fill="white"/>
<path d="M33.8645 6.56448C32.8896 6.56448 32.0994 5.81128 32.0994 4.88217C32.0994 3.95306 32.8896 3.19987 33.8645 3.19987C34.8394 3.19987 35.6297 3.95306 35.6297 4.88217C35.6297 5.81128 34.8394 6.56448 33.8645 6.56448Z" fill="white"/>
<path d="M41.3116 5.43958L40.8144 5.21568L40.6281 4.68517L41.1246 4.90907L41.3116 5.43958Z" fill="white"/>
<path d="M1.56824 26.0064C1.86597 25.7543 2.36612 25.4988 2.86185 25.3697C3.60693 21.7919 5.20927 18.6304 7.40049 16.2428L10.0654 18.8677L8.7689 25.2258C9.1033 25.2493 9.42964 25.2782 9.73471 25.3072L10.8831 18.8718L17.4128 16.3423L23.9454 18.8718L25.0938 25.3139C25.4155 25.2815 25.7384 25.26 26.0618 25.2493L24.7586 18.8677L26.314 17.3387C26.2847 17.0792 26.2568 16.8445 26.24 16.743C26.1674 16.5218 26.1028 16.31 26.0354 16.0928L24.2248 17.8814L17.9056 15.5697V11.5892C20.7825 11.6658 23.3374 12.7322 25.5631 14.5114C23.864 8.4411 24.0356 4.2777 26.0918 2.1328C27.4104 0.757103 29.7233 0 32.6039 0C36.7957 0 42.0676 1.69911 43.5805 4.84721C44.0704 5.86721 44.5632 7.93883 42.3661 10.3661L41.6482 11.1589L41.4084 11.0365C41.2448 13.2453 39.927 15.6416 34.9821 15.6416C34.6924 15.6416 34.611 15.723 34.567 15.7681C33.885 16.4525 34.0288 19.1031 34.1344 21.0389C34.2847 23.8017 34.427 26.4105 33.0696 27.7735C32.9112 27.9328 32.733 28.0633 32.5445 28.1789C32.3604 29.0268 31.9534 29.7335 31.2971 30.3204C31.8654 31.7923 32.2893 33.3428 32.4088 34.66C32.9222 35.0177 33.5587 36.2744 33.5587 38.3964C33.5587 39.1542 29.9367 39.2161 29.419 38.4818C29.1308 38.506 28.8228 38.5195 28.4862 38.5195C26.1798 38.5195 23.4672 37.9728 23.3528 37.9486L22.6547 37.8068L22.8292 37.1472C22.9641 36.6408 23.0368 36.0814 23.0712 35.4991C21.3926 35.4756 19.4625 35.1387 19.4625 35.1387C19.6832 34.422 19.7103 33.5734 19.6429 32.7222C18.1321 32.7519 16.6208 32.751 15.1101 32.7195C15.4174 33.4342 15.5039 34.0791 15.1776 34.4536C14.4508 35.2826 10.7401 35.5025 10.7401 35.5025C10.776 35.0816 10.7196 34.6264 10.6169 34.1692L10.5927 34.2075C9.98257 35.0554 9.2793 35.7667 8.5709 36.2838C8.4631 36.8553 8.18223 37.5855 7.62636 38.4058C7.29709 38.894 5.03254 37.3105 4.82207 36.5151C3.33265 35.3512 1.78751 32.9764 1.06077 31.7741L0.569431 30.9612L1.53964 30.7999C2.26467 30.6788 2.88825 30.48 3.41039 30.2034C2.80759 29.6212 2.43211 28.9293 2.26711 28.1016C2.10065 28.2771 1.93637 28.466 1.77944 28.6805C0.933167 29.839 0.235027 31.1663 0.0384941 30.5248C-0.159508 29.8834 0.414696 26.9834 1.56824 26.0064ZM4.49427 29.3488C4.56154 29.2728 4.62516 29.194 4.68493 29.1128C5.0296 28.6247 5.20047 28.0935 5.27967 27.6114H3.58273C3.67806 28.2751 3.95086 28.8546 4.49427 29.3488ZM32.4462 26.3003C33.8432 23.2577 30.8065 14.3292 34.9821 14.3292C39.0191 14.3292 40.0502 12.6193 40.0502 10.5309C40.0502 10.5309 39.7004 10.6815 39.0492 10.6815C38.0071 10.6815 36.1936 10.2962 33.808 8.28847C33.9686 8.28523 34.1292 8.28366 34.2898 8.28376C38.9055 8.28376 41.3248 9.50884 41.3248 9.50884C45.6141 4.76989 38.4574 1.31115 32.6039 1.31115C30.3232 1.31115 28.2398 1.83628 27.1097 3.01631C24.3978 5.84503 26.4959 13.1397 27.5725 16.4041L27.5754 16.4156C28.6226 17.6346 29.5371 19.452 30.9341 19.8804C32.2064 20.271 31.8918 23.5287 29.0333 24.9084C29.2115 25.4423 29.4117 25.9157 29.6353 26.3003H32.4462ZM28.4869 37.2063C29.1315 37.2063 29.5847 37.1586 29.914 37.0947C30.2404 36.5012 30.6277 35.9374 31.0705 35.4111C31.0939 32.5736 29.0127 27.961 27.6744 26.5753C27.4581 26.5618 27.1104 26.5457 26.6968 26.5457C25.1026 26.5457 23.872 26.7736 23.2252 27.1777C23.6476 28.6038 24.9156 33.3307 24.312 36.7874C25.2441 36.9474 26.9851 37.2063 28.4869 37.2063ZM22.7632 31.2793C22.6554 30.6466 22.5329 30.0461 22.4112 29.5102C22.3477 29.6824 22.2741 29.8507 22.1905 30.0152C21.9404 30.4791 21.6185 30.9007 21.2313 31.2389C21.1799 31.284 21.1249 31.3257 21.0721 31.368C21.6363 31.3462 22.2 31.3166 22.7632 31.2793ZM14.3181 31.3862C15.351 31.4158 16.3844 31.4301 17.4179 31.4292C18.5362 31.4292 19.5637 31.4144 20.5155 31.3862C20.6555 31.233 20.7905 31.076 20.9203 30.9155C21.2194 30.5442 21.4799 30.148 21.6984 29.7321C21.8964 29.357 22.0581 28.9666 22.1817 28.5655C22.0805 28.1742 21.9917 27.8515 21.9221 27.6121H12.4092C12.4625 27.886 12.526 28.1527 12.5999 28.4122C12.7324 28.8668 12.9119 29.3088 13.1359 29.7321C13.3547 30.148 13.6154 30.5442 13.9147 30.9155C14.0416 31.0762 14.1795 31.2308 14.3181 31.3862ZM13.7629 31.368C13.7092 31.3263 13.6561 31.2833 13.6038 31.2389C13.2089 30.8851 12.8841 30.471 12.6439 30.0152C12.55 29.8316 12.4708 29.64 12.4011 29.447C12.3447 30.0616 12.2339 30.6748 12.0506 31.2772C12.6208 31.316 13.1917 31.3463 13.7629 31.368ZM5.88101 35.6679C6.72581 35.2806 7.49509 35.0856 7.96809 35.0507C8.53935 34.5844 9.04067 34.0509 9.45897 33.4638C10.1666 32.4795 11.6693 29.911 10.8332 26.7487C10.0632 26.6533 8.43303 26.4724 7.15849 26.4724C6.99569 26.4724 6.84486 26.4753 6.70602 26.4811C6.75735 27.2873 6.67962 28.6301 5.83628 29.8323C5.1506 30.8099 4.11 31.4964 2.73278 31.8824C3.87533 33.638 5.12567 35.134 5.88101 35.6679Z" fill="white"/>
</svg>
