<svg width="64" height="34" viewBox="0 0 64 34" fill="none" xmlns="http://www.w3.org/2000/svg">
<path d="M1.58117 32.2183L9.22517 17.1403L2.00117 5.00226V2.48226H12.5432L16.7432 13.0243H17.5832L21.7412 2.48226H32.6612L24.9752 17.2663L32.2412 29.6983V32.2183H21.9092L17.5832 22.1803H16.7432L12.2072 32.2183H1.58117ZM36.6315 32.2183V9.24426L35.7915 5.00226L36.6315 2.48226H51.7515C54.0195 2.48226 55.9655 2.84626 57.5895 3.57426C59.2135 4.30226 60.4595 5.47826 61.3275 7.10226C62.1955 8.69826 62.6295 10.8123 62.6295 13.4443C62.6295 17.3923 61.5655 20.2343 59.4375 21.9703C57.3375 23.6783 54.3555 24.5323 50.4915 24.5323H45.8715V25.4563L46.2915 29.6563L45.8715 32.2183H36.6315ZM45.8715 16.6783H48.3075C49.2875 16.6783 50.1275 16.6363 50.8275 16.5523C51.5555 16.4683 52.1155 16.2163 52.5075 15.7963C52.8995 15.3483 53.0955 14.6343 53.0955 13.6543C53.0955 12.6183 52.8855 11.8763 52.4655 11.4283C52.0455 10.9803 51.4575 10.7143 50.7015 10.6303C49.9735 10.5183 49.1195 10.4623 48.1395 10.4623H45.4515L45.8715 16.6783Z" fill="white"/>
<path d="M1.07946 31.9639C1.41394 32.1335 1.74841 32.303 2.08288 32.4726C3.36896 30.2122 4.64389 27.9462 5.90767 25.6745C7.38538 23.0183 8.84783 20.3543 10.2951 17.6827L10.5937 17.1312L10.2559 16.5268C7.95817 12.4152 5.6251 8.32459 3.25675 4.255L3.4623 5.00226C3.47053 4.16226 3.47745 3.32226 3.48307 2.48226L2.00117 3.96416C3.80603 3.97623 5.61088 3.98226 7.41573 3.98226C9.12488 3.98226 10.834 3.98166 12.5432 3.98046L11.1514 3.03676C12.5538 6.54978 13.959 10.0617 15.367 13.5725L15.7354 14.5034L16.7432 14.5056C17.0232 14.505 17.3032 14.5044 17.5832 14.5037L18.5865 14.5061L18.9594 13.5671C20.3371 10.0498 21.712 6.53142 23.0842 3.01197L21.7412 3.92595C25.3812 3.91164 29.0212 3.89461 32.6612 3.87485L31.4256 1.8399C28.8903 6.78181 26.3607 11.7267 23.8368 16.6744L23.51 17.2912L23.8674 17.9137C26.3214 22.039 28.7795 26.1619 31.2416 30.2824L31.0834 29.6983C31.0916 30.5383 31.0999 31.3783 31.1083 32.2183L32.2412 31.0854C28.7972 31.12 25.3532 31.157 21.9092 31.1964L22.8476 31.8138C21.3672 28.4844 19.8844 25.156 18.3991 21.8286L18.1791 21.2996L17.5832 21.2918C17.3032 21.2955 17.0232 21.2991 16.7432 21.3028L16.1883 21.2955L15.9435 21.8189C14.4753 25.1847 13.0095 28.5516 11.5463 31.9196L12.2072 31.4931C11.2628 31.5068 10.3184 31.5208 9.37408 31.5349C6.77645 31.5738 4.17881 31.6141 1.58117 31.6558C1.58117 32.0308 1.58117 32.4058 1.58117 32.7808C4.17881 32.8224 6.77645 32.8627 9.37408 32.9016C10.3184 32.9157 11.2628 32.9297 12.2072 32.9435L12.6857 32.9365L12.868 32.5169C14.4288 29.1929 15.9871 25.8678 17.5428 22.5416L16.7432 23.0578C17.0232 23.0614 17.3032 23.0651 17.5832 23.0687L16.7673 22.5319C18.1659 25.8966 19.5671 29.2602 20.9708 32.6227L21.2486 33.2477L21.9092 33.2401C25.3532 33.2796 28.7972 33.3166 32.2412 33.3511L33.3853 33.3396L33.374 32.2183C33.3825 31.3783 33.3908 30.5383 33.3989 29.6983L33.3958 29.3736L33.2407 29.1141C30.8589 24.9466 28.4729 20.7815 26.0829 16.6188L26.1136 17.8581C28.7136 12.9499 31.308 8.03871 33.8968 3.12462L34.9478 1.07848L32.6612 1.08968C29.0212 1.06991 25.3812 1.05288 21.7412 1.03857L20.753 1.04245L20.3982 1.95255C18.9984 5.4611 17.6013 8.97073 16.2069 12.4814L17.5832 11.5448C17.3032 11.5442 17.0232 11.5435 16.7432 11.5429L18.1194 12.476C16.7273 8.95882 15.3325 5.44274 13.935 1.92776L13.5579 0.983351L12.5432 0.984066C10.834 0.982862 9.12488 0.982262 7.41573 0.982262C5.61088 0.982262 3.80603 0.988297 2.00117 1.00036L0.509433 1.01034L0.519275 2.48226C0.524892 3.32226 0.531816 4.16226 0.540048 5.00226L0.544126 5.41844L0.745593 5.74953C3.19324 9.77193 5.67618 13.7733 8.1944 17.7537L8.15529 16.5979C6.85569 19.3444 5.57132 22.0986 4.3022 24.8606C3.21681 27.2227 2.14256 29.5905 1.07946 31.9639ZM2.08288 32.4726L1.07946 31.9639L0.707888 32.7935L1.58117 32.7808V31.6558L2.08288 32.4726ZM36.069 32.2183C36.444 32.2183 36.819 32.2183 37.194 32.2183C37.319 30.4959 37.4315 28.7735 37.5315 27.0511C37.8761 21.1155 38.0723 15.1799 38.12 9.24426L38.0916 8.95512C37.9138 8.01784 37.7323 7.0813 37.547 6.14551C37.4523 5.6673 37.3575 5.18912 37.2626 4.71095L37.2142 5.4765C37.4938 4.63637 37.7731 3.79613 38.052 2.95577L36.6315 3.97961C41.6715 3.97313 46.7115 3.95476 51.7515 3.9245C53.6071 3.91233 55.4365 4.16082 57.0165 4.85243C58.3553 5.42969 59.4178 6.42598 60.1323 7.74107C61.0207 9.3363 61.3167 11.3925 61.3431 13.4443C61.39 16.3752 60.7603 19.3658 58.7018 21.0685C56.5818 22.861 53.5099 23.4679 50.4915 23.52C48.9515 23.5469 47.4115 23.5749 45.8715 23.604L44.9611 23.5868L44.9432 24.5323C44.949 24.8403 44.9549 25.1483 44.9608 25.4563L44.9653 25.5469C45.1322 26.9442 45.2999 28.3414 45.4686 29.7385L45.4754 29.5225C45.3529 30.3793 45.2308 31.2363 45.109 32.0933L45.8715 31.4456C44.5139 31.4745 43.1563 31.5043 41.7987 31.5349C40.0763 31.5738 38.3539 31.6141 36.6315 31.6558C36.6315 32.0308 36.6315 32.4058 36.6315 32.7808C38.3539 32.8224 40.0763 32.8627 41.7987 32.9016C43.1563 32.9322 44.5139 32.962 45.8715 32.991L46.544 32.9766L46.634 32.3433C46.7922 31.4922 46.9501 30.6412 47.1076 29.79L47.1143 29.574C47.003 28.1711 46.8908 26.7683 46.7777 25.3656L46.7822 25.4563C46.7881 25.1483 46.794 24.8403 46.7998 24.5323L45.8715 25.4606C47.4115 25.4896 48.9515 25.5176 50.4915 25.5445C53.7349 25.5881 57.3117 25.1164 60.1718 22.8731C63.1332 20.5305 63.8882 16.6824 63.9158 13.4443C63.9269 11.1603 63.7091 8.73589 62.518 6.45478C61.6174 4.68466 60.0304 3.12177 58.1625 2.29609C56.0896 1.35371 53.8743 1.05466 51.7515 1.04002C46.7115 1.00976 41.6715 0.991388 36.6315 0.984909L35.5503 0.9863L35.211 2.00876C34.9299 2.8484 34.6492 3.68815 34.3688 4.52802L34.2433 4.9051L34.3204 5.29357C34.4149 5.77182 34.5094 6.25005 34.6041 6.72825C34.7894 7.66405 34.9785 8.59909 35.1713 9.5334L35.143 9.24426C35.1907 15.1799 35.3869 21.1155 35.7315 27.0511C35.8315 28.7735 35.944 30.4959 36.069 32.2183ZM37.194 32.2183H36.069L36.1107 32.7934L36.6315 32.7808V31.6558L37.194 32.2183ZM45.8715 15.1783C45.8715 16.1783 45.8715 17.1783 45.8715 18.1783C46.2872 18.1783 46.7029 18.1783 47.1187 18.1783C47.5149 18.1783 47.9112 18.1783 48.3075 18.1783C49.1868 18.1769 50.0741 18.1513 51.0062 18.0416C51.8183 17.9527 52.8502 17.6343 53.6041 16.8197L53.6363 16.784C54.5712 15.6309 54.5663 14.5468 54.5955 13.6543C54.5605 12.7315 54.588 11.6 53.5598 10.4023C52.8003 9.5794 51.7293 9.22721 50.8671 9.13944L50.9296 9.14771C49.9674 9.00178 49.0468 8.96371 48.1395 8.96226C47.2435 8.96226 46.3475 8.96226 45.4515 8.96226H43.8467L43.9549 10.5634C44.0669 12.2206 44.1788 13.8778 44.2908 15.5351C44.3188 15.9498 44.3469 16.3646 44.3749 16.7794C45.3726 16.712 46.3703 16.6446 47.3681 16.5771C47.34 16.1624 47.312 15.7476 47.284 15.3328C47.172 13.6756 47.06 12.0184 46.9481 10.3611L45.4515 11.9623C46.3475 11.9623 47.2435 11.9623 48.1395 11.9623C48.945 11.9627 49.7411 12.0008 50.4734 12.1128L50.5358 12.1211C50.9769 12.1708 51.2271 12.2984 51.3712 12.4542C51.4234 12.453 51.6155 13.0251 51.5955 13.6543C51.6122 14.2519 51.44 14.7864 51.3786 14.8085L51.4109 14.7728C51.3051 14.8909 51.0745 15.0143 50.6555 15.0621C49.9089 15.1508 49.1109 15.1777 48.3075 15.1783C47.9112 15.1783 47.5149 15.1783 47.1187 15.1783C46.7029 15.1783 46.2872 15.1783 45.8715 15.1783ZM45.8715 18.1783V15.1783L47.3681 16.5771L44.3749 16.7794L44.4694 18.1783H45.8715Z" fill="#02944C"/>
</svg>
