<svg width="40" height="40" viewBox="0 0 40 40" fill="none" xmlns="http://www.w3.org/2000/svg">
<path d="M30.2207 7C30.9759 7.00004 31.6647 7.2545 32.2051 7.79492C32.7455 8.33534 33 9.02412 33 9.7793C33 10.5345 32.7454 11.2232 32.2051 11.7637L23.9688 20L32.2051 28.2363C32.7454 28.7768 33 29.4655 33 30.2207C33 30.9759 32.7455 31.6647 32.2051 32.2051C31.6647 32.7455 30.9759 33 30.2207 33C29.4655 33 28.7768 32.7454 28.2363 32.2051L20 23.9688L11.7637 32.2051C11.2232 32.7454 10.5345 33 9.7793 33C9.02412 33 8.33534 32.7455 7.79492 32.2051C7.2545 31.6647 7.00004 30.9759 7 30.2207C7 29.4655 7.25458 28.7768 7.79492 28.2363L16.0303 20L7.79492 11.7637C7.25458 11.2232 7 10.5345 7 9.7793C7.00004 9.02413 7.2545 8.33534 7.79492 7.79492C8.33534 7.2545 9.02413 7.00004 9.7793 7C10.5345 7 11.2232 7.25458 11.7637 7.79492L20 16.0303L28.2363 7.79492C28.7768 7.25458 29.4655 7 30.2207 7Z" fill="currentColor" stroke="#009950" stroke-width="2"/>
</svg>
