<svg width="191" height="65" viewBox="0 0 191 65" fill="none" xmlns="http://www.w3.org/2000/svg">
<path d="M2.28516 33.0898L2.32422 25.0625V16.918C2.35026 16.9049 2.47396 16.8984 2.69531 16.8984H3.41797C3.69141 16.8984 3.89974 16.8854 4.04297 16.8594L6.46484 16.7617C7.08984 16.7357 7.57161 16.7227 7.91016 16.7227H11.0156L16.7578 16.5859C17.5391 16.5859 18.3984 16.6185 19.3359 16.6836H19.4727C19.9154 16.6576 20.1953 16.6445 20.3125 16.6445C22.9167 16.6445 25.1432 17.4714 26.9922 19.125C27.8906 19.9193 28.6003 20.9414 29.1211 22.1914C29.6419 23.4414 29.9023 24.737 29.9023 26.0781C29.9023 27.4062 29.7656 28.5391 29.4922 29.4766C29.2188 30.4141 28.8672 31.2083 28.4375 31.8594C26.7188 34.4896 23.3919 36.026 18.457 36.4688L14.2383 36.6445C14.1081 39.7695 14.043 42.1979 14.043 43.9297L14.0625 44.5352V46.1172C14.0104 46.2995 13.9128 46.4232 13.7695 46.4883L2.61719 46.6641C2.39583 46.0391 2.28516 45.0365 2.28516 43.6562V33.0898ZM19.375 24.7109C18.8542 23.3438 17.474 22.6146 15.2344 22.5234C14.9089 22.5104 14.4596 22.5039 13.8867 22.5039C13.7305 22.5039 13.6328 24.4245 13.5938 28.2656L13.5547 29.7305L13.6133 30.9023C15.2148 30.8763 16.6211 30.5378 17.832 29.8867C19.056 29.2357 19.668 28.0508 19.668 26.332C19.668 25.6029 19.5703 25.0625 19.375 24.7109ZM60.0391 30.8633L59.9805 36.3516C59.9805 38.0312 59.707 39.5156 59.1602 40.8047C58.6263 42.0938 57.9167 43.1354 57.0312 43.9297C54.6224 46.1172 51.0612 47.2109 46.3477 47.2109C41.6341 47.2109 37.9688 46.0651 35.3516 43.7734C34.4271 42.9792 33.6458 41.9505 33.0078 40.6875C32.3828 39.4115 32.0052 37.9727 31.875 36.3711C31.9401 30.9284 31.9727 25.8958 31.9727 21.2734C31.9076 21.2734 31.875 20.5898 31.875 19.2227C31.875 17.8555 31.9336 17.0091 32.0508 16.6836H32.4609C34.375 16.5794 36.9857 16.5273 40.293 16.5273C40.5273 16.5794 40.9505 16.612 41.5625 16.625C42.1875 16.638 42.6172 16.6576 42.8516 16.6836L43.457 16.7617C43.5482 19.3398 43.6068 22.888 43.6328 27.4062L43.5156 35.2578C43.5156 37.862 44.2708 39.1641 45.7812 39.1641C46.4193 39.1641 46.9531 38.8841 47.3828 38.3242C47.8255 37.7643 48.0599 37.1328 48.0859 36.4297L48.1641 36.2344L48.2227 29.6523L48.2422 29.0664C48.2422 26.0456 48.2031 23.1289 48.125 20.3164L48.0859 18.8906C48.0599 18.3177 48.0469 17.8034 48.0469 17.3477C48.0469 16.8919 48.1185 16.5794 48.2617 16.4102C53.2878 16.4102 57.0768 16.4297 59.6289 16.4688C59.7201 16.5599 59.8372 16.6445 59.9805 16.7227H59.9609L60.1758 16.8594C60.0716 19.3203 60.0195 22.4844 60.0195 26.3516V29.7109L60.0391 30.8633ZM86.2109 17.4258L86.1914 19.2422C86.1914 21.026 86.1654 22.6146 86.1133 24.0078C84.5898 24.138 82.5065 24.2031 79.8633 24.2031L75.3516 24.2227V24.7891L75.3125 26.5078C75.3125 26.9635 75.332 27.4062 75.3711 27.8359C78.6263 27.5625 81.0352 27.4258 82.5977 27.4258C84.1732 27.4258 85.1367 27.543 85.4883 27.7773V34.3203C85.4883 34.75 85.4036 35.0365 85.2344 35.1797C85.0651 35.3229 84.8047 35.3945 84.4531 35.3945H84.1992L83.1445 35.3555C80.8138 35.4857 78.2292 35.5833 75.3906 35.6484L75.5273 43.4219L75.5078 44.0859V45.9219C75.5078 46.3125 75.3906 46.5208 75.1562 46.5469L63.9844 46.6445C63.9583 46.5664 63.8607 46.3906 63.6914 46.1172C63.6393 45.2578 63.6133 44.5286 63.6133 43.9297L63.7305 16.7617C63.7305 16.5924 64.6159 16.5078 66.3867 16.5078L66.875 16.5273H68.2031L77.6367 16.4297L84.3359 16.5078H85L85.293 16.4883C85.6576 16.4883 85.8984 16.5729 86.0156 16.7422C86.1458 16.8984 86.2109 17.1263 86.2109 17.4258ZM110.938 17.4258L110.918 19.2422C110.918 21.026 110.892 22.6146 110.84 24.0078C109.316 24.138 107.233 24.2031 104.59 24.2031L100.078 24.2227V24.7891L100.039 26.5078C100.039 26.9635 100.059 27.4062 100.098 27.8359C103.353 27.5625 105.762 27.4258 107.324 27.4258C108.9 27.4258 109.863 27.543 110.215 27.7773V34.3203C110.215 34.75 110.13 35.0365 109.961 35.1797C109.792 35.3229 109.531 35.3945 109.18 35.3945H108.926L107.871 35.3555C105.54 35.4857 102.956 35.5833 100.117 35.6484L100.254 43.4219L100.234 44.0859V45.9219C100.234 46.3125 100.117 46.5208 99.8828 46.5469L88.7109 46.6445C88.6849 46.5664 88.5872 46.3906 88.418 46.1172C88.3659 45.2578 88.3398 44.5286 88.3398 43.9297L88.457 16.7617C88.457 16.5924 89.3424 16.5078 91.1133 16.5078L91.6016 16.5273H92.9297L102.363 16.4297L109.062 16.5078H109.727L110.02 16.4883C110.384 16.4883 110.625 16.5729 110.742 16.7422C110.872 16.8984 110.938 17.1263 110.938 17.4258ZM112.871 43.9102C112.871 41.2669 112.943 39.431 113.086 38.4023C113.086 32.7383 113.164 27.0286 113.32 21.2734C113.281 20.4531 113.262 19.6263 113.262 18.793V18.1484C113.21 17.7448 113.184 17.3867 113.184 17.0742C113.184 16.7617 113.216 16.5599 113.281 16.4688C116.068 16.638 118.509 16.7227 120.605 16.7227C122.702 16.7227 124.141 16.6836 124.922 16.6055C124.948 16.6445 124.967 16.7552 124.98 16.9375H124.844V24.0078L124.98 39.9062C124.98 40.0234 125 40.1211 125.039 40.1992V40.2383C125.078 40.3164 125.098 40.401 125.098 40.4922L125.254 46.1758C125.189 46.319 125.072 46.4297 124.902 46.5078H124.238L113.301 46.6836C113.171 46.6185 113.001 46.5208 112.793 46.3906L112.812 46.0586L112.871 43.9102ZM159.082 32.3281L159.062 33.6367V40.8633L159.102 44.3008V45.2773L159.121 46.1953C159.043 46.2995 158.724 46.3516 158.164 46.3516H157.656L151.523 46.4297C148.919 46.4297 146.979 46.4232 145.703 46.4102C145.508 46.2018 144.798 44.3073 143.574 40.7266L139.844 30.8242L139.141 30.9219L139.121 32.9141V38.207L139.199 43.5V45.6875C139.199 46.2734 139.069 46.5794 138.809 46.6055C137.52 46.5664 136.289 46.5469 135.117 46.5469H134.512L131.562 46.625H131.172L129.766 46.6641L129.707 46.625C129.277 46.2214 129.062 45.9284 129.062 45.7461V45.3945L129.082 45.0039L129.18 37.3867C129.18 29.0273 129.258 22.7057 129.414 18.4219L129.453 16.8008C129.453 16.6836 133.939 16.5794 142.91 16.4883C142.988 16.5404 143.105 16.8268 143.262 17.3477V17.2891L143.379 17.6797C144.342 20.4401 145.514 23.6107 146.895 27.1914C148.275 30.7591 148.978 32.582 149.004 32.6602L149.668 32.6211L149.746 16.7031C149.746 16.599 150.697 16.5469 152.598 16.5469L157.5 16.6445H158.945C159.036 20.9544 159.082 26.1823 159.082 32.3281ZM162.266 37.9336L172.598 37.7578C172.858 37.7578 173.073 37.9792 173.242 38.4219C173.424 38.8646 173.6 39.2161 173.77 39.4766C174.173 40.1016 174.837 40.4141 175.762 40.4141C176.699 40.4141 177.454 40.1992 178.027 39.7695C178.6 39.3268 178.887 38.7604 178.887 38.0703C178.887 37.3802 178.711 36.9115 178.359 36.6641C178.008 36.4036 177.624 36.1562 177.207 35.9219C176.79 35.6745 176.172 35.4857 175.352 35.3555C174.544 35.2253 174.102 35.1471 174.023 35.1211H174.062L172.949 34.8281C172.233 34.6979 171.634 34.5547 171.152 34.3984C168.04 33.5651 165.788 32.5169 164.395 31.2539C163.014 29.9909 162.324 28.2917 162.324 26.1562C162.324 24.6068 162.611 23.2135 163.184 21.9766C163.757 20.7396 164.505 19.7305 165.43 18.9492C168.099 16.6966 171.784 15.5703 176.484 15.5703C180.221 15.5703 183.158 16.2474 185.293 17.6016H185.273C186.641 18.5911 187.578 19.5677 188.086 20.5312C188.594 21.4818 188.913 22.6602 189.043 24.0664L188.535 24.5742C185.111 24.7044 182.077 24.7695 179.434 24.7695C178.639 24.7695 178.164 24.5352 178.008 24.0664C177.943 23.8711 177.871 23.6758 177.793 23.4805C177.611 23.0117 177.025 22.7773 176.035 22.7773H175.957C175.189 22.7773 174.531 22.9596 173.984 23.3242C173.438 23.6758 173.158 24.0208 173.145 24.3594C173.145 24.6979 173.216 24.9779 173.359 25.1992C173.516 25.4206 173.678 25.5964 173.848 25.7266C174.017 25.8568 174.277 25.9935 174.629 26.1367C174.98 26.2669 175.241 26.3581 175.41 26.4102C175.592 26.4492 175.872 26.5208 176.25 26.625L176.934 26.8008C177.207 26.8789 178.001 27.0742 179.316 27.3867C180.645 27.6992 181.751 27.9987 182.637 28.2852V28.2656C185.41 29.2031 187.298 30.375 188.301 31.7812C189.316 33.1745 189.824 34.8021 189.824 36.6641C189.824 41.625 186.862 44.8411 180.938 46.3125C179.219 46.7422 177.383 47.0482 175.43 47.2305C173.034 47.2305 170.664 46.8789 168.32 46.1758C165.977 45.4727 164.408 44.3268 163.613 42.7383C163.079 41.9701 162.721 41.2669 162.539 40.6289C162.357 39.9779 162.207 39.0729 162.09 37.9141C162.129 37.9271 162.188 37.9336 162.266 37.9336Z" fill="white"/>
</svg>
