<svg width="26" height="26" viewBox="0 0 26 26" fill="none" xmlns="http://www.w3.org/2000/svg">
<path d="M13 16.25C14.7949 16.25 16.25 14.7949 16.25 13C16.25 11.2051 14.7949 9.75 13 9.75C11.2051 9.75 9.75 11.2051 9.75 13C9.75 14.7949 11.2051 16.25 13 16.25Z" stroke="#936300" stroke-width="1.5"/>
<path d="M14.9111 2.33068C14.5135 2.16602 14.0087 2.16602 12.999 2.16602C11.9894 2.16602 11.4845 2.16602 11.0869 2.33068C10.8239 2.43957 10.5849 2.59924 10.3836 2.80055C10.1822 3.00186 10.0226 3.24088 9.91369 3.50393C9.81402 3.74552 9.77394 4.02827 9.75877 4.43885C9.75172 4.73561 9.66951 5.02572 9.51983 5.28207C9.37016 5.53841 9.15791 5.7526 8.90294 5.9046C8.64381 6.04952 8.35216 6.12633 8.05527 6.12784C7.75837 6.12936 7.46595 6.05553 7.20536 5.91327C6.84136 5.72043 6.57811 5.61427 6.31702 5.5796C5.74754 5.50471 5.17161 5.65901 4.71586 6.0086C4.37569 6.27185 4.12219 6.70843 3.61736 7.58268L3.60649 7.6015C3.10888 8.46322 2.85863 8.8966 2.80377 9.32143C2.76654 9.60359 2.78527 9.89032 2.85888 10.1652C2.93249 10.4402 3.05954 10.6979 3.23277 10.9237C3.39311 11.1317 3.61736 11.3061 3.96511 11.5249C4.47752 11.8467 4.80686 12.3948 4.80686 12.9993C4.80686 13.6038 4.47752 14.152 3.96511 14.4727C3.61736 14.6926 3.39202 14.867 3.23277 15.075C3.05954 15.3008 2.93249 15.5585 2.85888 15.8335C2.78527 16.1084 2.76654 16.3951 2.80377 16.6773C2.86004 17.1036 3.11191 17.5407 3.61444 18.4128L3.61627 18.416L3.6181 18.4192C4.1228 19.2913 4.37502 19.7272 4.71586 19.9901C4.94166 20.1633 5.19939 20.2904 5.4743 20.364C5.74922 20.4376 6.03595 20.4563 6.31811 20.4191C6.57811 20.3844 6.84136 20.2783 7.20536 20.0854C7.46595 19.9432 7.75837 19.8693 8.05527 19.8709C8.35216 19.8724 8.64381 19.9492 8.90294 20.0941C9.42619 20.3974 9.73711 20.9554 9.75877 21.5599C9.77394 21.9715 9.81294 22.2532 9.91369 22.4948C10.0226 22.7578 10.1822 22.9968 10.3836 23.1981C10.5849 23.3995 10.8239 23.5591 11.0869 23.668C11.4845 23.8327 11.9894 23.8327 12.999 23.8327C14.0087 23.8327 14.5135 23.8327 14.9111 23.668C15.1742 23.5591 15.4132 23.3995 15.6145 23.1981C15.8158 22.9968 15.9755 22.7578 16.0844 22.4948C16.184 22.2532 16.2241 21.9715 16.2393 21.5599C16.2609 20.9554 16.5719 20.3963 17.0951 20.0941C17.3542 19.9492 17.6459 19.8724 17.9428 19.8709C18.2397 19.8693 18.5321 19.9432 18.7927 20.0854C19.1567 20.2783 19.4199 20.3844 19.6799 20.4191C19.9621 20.4563 20.2488 20.4376 20.5237 20.364C20.7987 20.2904 21.0564 20.1633 21.2822 19.9901C21.6229 19.7284 21.875 19.2917 22.3782 18.4203L22.3807 18.416L22.3916 18.3972C22.8892 17.5355 23.1394 17.1021 23.1943 16.6773C23.2315 16.3951 23.2128 16.1084 23.1392 15.8335C23.0656 15.5585 22.9385 15.3008 22.7653 15.075C22.6049 14.867 22.3807 14.6926 22.0329 14.4738C21.7794 14.3193 21.5691 14.103 21.4219 13.8451C21.2747 13.5873 21.1953 13.2963 21.1912 12.9993C21.1912 12.3948 21.5205 11.8467 22.0329 11.526C22.3807 11.3061 22.606 11.1317 22.7653 10.9237C22.9385 10.6979 23.0656 10.4402 23.1392 10.1652C23.2128 9.89032 23.2315 9.60359 23.1943 9.32143C23.138 8.89511 22.8861 8.45799 22.3836 7.58585L22.3818 7.58268L22.3799 7.57952C21.8752 6.70738 21.623 6.27153 21.2822 6.0086C21.0564 5.83536 20.7987 5.70831 20.5237 5.6347C20.2488 5.5611 19.9621 5.54237 19.6799 5.5796C19.4199 5.61427 19.1567 5.72043 18.7916 5.91327C18.5311 6.05534 18.2389 6.12906 17.9422 6.12754C17.6456 6.12603 17.3541 6.04932 17.0951 5.9046C16.8401 5.7526 16.6279 5.53841 16.4782 5.28207C16.3285 5.02572 16.2463 4.73561 16.2393 4.43885C16.2241 4.02718 16.1851 3.74552 16.0844 3.50393C15.9755 3.24088 15.8158 3.00186 15.6145 2.80055C15.4132 2.59924 15.1742 2.43957 14.9111 2.33068Z" fill="white"/>
<path d="M3.61736 7.58268C4.12219 6.70843 4.37569 6.27185 4.71586 6.0086C5.17161 5.65901 5.74754 5.50471 6.31702 5.5796C6.57811 5.61427 6.84136 5.72043 7.20536 5.91327C7.46595 6.05553 7.75837 6.12936 8.05527 6.12784C8.35216 6.12633 8.64381 6.04952 8.90294 5.9046C9.15791 5.7526 9.37016 5.53841 9.51983 5.28207C9.66951 5.02572 9.75172 4.73561 9.75877 4.43885C9.77394 4.02827 9.81402 3.74552 9.91369 3.50393C10.0226 3.24088 10.1822 3.00186 10.3836 2.80055C10.5849 2.59924 10.8239 2.43957 11.0869 2.33068C11.4845 2.16602 11.9894 2.16602 12.999 2.16602C14.0087 2.16602 14.5135 2.16602 14.9111 2.33068C15.1742 2.43957 15.4132 2.59924 15.6145 2.80055C15.8158 3.00186 15.9755 3.24088 16.0844 3.50393C16.1851 3.74552 16.2241 4.02718 16.2393 4.43885C16.2463 4.73561 16.3285 5.02572 16.4782 5.28207C16.6279 5.53841 16.8401 5.7526 17.0951 5.9046C17.3541 6.04932 17.6456 6.12603 17.9422 6.12754C18.2389 6.12906 18.5311 6.05534 18.7916 5.91327C19.1567 5.72043 19.4199 5.61427 19.6799 5.5796C19.9621 5.54237 20.2488 5.5611 20.5237 5.6347C20.7987 5.70831 21.0564 5.83536 21.2822 6.0086C21.623 6.27153 21.8752 6.70738 22.3799 7.57952M3.61736 7.58268L3.60649 7.6015M3.61736 7.58268C3.61372 7.58898 3.6101 7.59525 3.60649 7.6015M3.61627 18.416L3.61444 18.4128M3.61627 18.416L3.6181 18.4192M3.61627 18.416C3.61688 18.4171 3.61749 18.4181 3.6181 18.4192M3.61627 18.416C3.61566 18.415 3.61505 18.4139 3.61444 18.4128M22.3807 18.416L22.3782 18.4203M22.3807 18.416L22.3916 18.3972M22.3807 18.416C22.3843 18.4097 22.3879 18.4034 22.3916 18.3972M22.3807 18.416C22.3799 18.4175 22.379 18.4189 22.3782 18.4203M22.3818 7.58268L22.3836 7.58585M22.3818 7.58268L22.3799 7.57952M22.3818 7.58268C22.3812 7.58163 22.3806 7.58058 22.3799 7.57952M22.3818 7.58268C22.3824 7.58374 22.383 7.5848 22.3836 7.58585M3.60649 7.6015C3.10888 8.46322 2.85863 8.8966 2.80377 9.32143C2.76654 9.60359 2.78527 9.89032 2.85888 10.1652C2.93249 10.4402 3.05954 10.6979 3.23277 10.9237C3.39311 11.1317 3.61736 11.3061 3.96511 11.5249C4.47752 11.8467 4.80686 12.3948 4.80686 12.9993C4.80686 13.6038 4.47752 14.152 3.96511 14.4727C3.61736 14.6926 3.39202 14.867 3.23277 15.075C3.05954 15.3008 2.93249 15.5585 2.85888 15.8335C2.78527 16.1084 2.76654 16.3951 2.80377 16.6773C2.86004 17.1036 3.11191 17.5407 3.61444 18.4128M3.6181 18.4192C4.1228 19.2913 4.37502 19.7272 4.71586 19.9901C4.94166 20.1633 5.19939 20.2904 5.4743 20.364C5.74922 20.4376 6.03595 20.4563 6.31811 20.4191C6.57811 20.3844 6.84136 20.2783 7.20536 20.0854C7.46595 19.9432 7.75837 19.8693 8.05527 19.8709C8.35216 19.8724 8.64381 19.9492 8.90294 20.0941C9.42619 20.3974 9.73711 20.9554 9.75877 21.5599C9.77394 21.9715 9.81294 22.2532 9.91369 22.4948C10.0226 22.7578 10.1822 22.9968 10.3836 23.1981C10.5849 23.3995 10.8239 23.5591 11.0869 23.668C11.4845 23.8327 11.9894 23.8327 12.999 23.8327C14.0087 23.8327 14.5135 23.8327 14.9111 23.668C15.1742 23.5591 15.4132 23.3995 15.6145 23.1981C15.8158 22.9968 15.9755 22.7578 16.0844 22.4948C16.184 22.2532 16.2241 21.9715 16.2393 21.5599C16.2609 20.9554 16.5719 20.3963 17.0951 20.0941C17.3542 19.9492 17.6459 19.8724 17.9428 19.8709C18.2397 19.8693 18.5321 19.9432 18.7927 20.0854C19.1567 20.2783 19.4199 20.3844 19.6799 20.4191C19.9621 20.4563 20.2488 20.4376 20.5237 20.364C20.7987 20.2904 21.0564 20.1633 21.2822 19.9901C21.6229 19.7284 21.875 19.2917 22.3782 18.4203M22.3916 18.3972C22.8892 17.5355 23.1394 17.1021 23.1943 16.6773C23.2315 16.3951 23.2128 16.1084 23.1392 15.8335C23.0656 15.5585 22.9385 15.3008 22.7653 15.075C22.6049 14.867 22.3807 14.6926 22.0329 14.4738C21.7794 14.3193 21.5691 14.103 21.4219 13.8451C21.2747 13.5873 21.1953 13.2963 21.1912 12.9993C21.1912 12.3948 21.5205 11.8467 22.0329 11.526C22.3807 11.3061 22.606 11.1317 22.7653 10.9237C22.9385 10.6979 23.0656 10.4402 23.1392 10.1652C23.2128 9.89032 23.2315 9.60359 23.1943 9.32143C23.138 8.89511 22.8861 8.45799 22.3836 7.58585" stroke="#936300" stroke-width="1.5"/>
<circle cx="13" cy="13" r="2.5" fill="#F2B029" stroke="#936300"/>
</svg>
